G04 EAGLE Gerber RS-274X export*
G75*
%MOMM*%
%FSLAX34Y34*%
%LPD*%
%INBottom Copper*%
%IPPOS*%
%AMOC8*
5,1,8,0,0,1.08239X$1,22.5*%
G01*
%ADD10C,0.904800*%
%ADD11R,1.879600X1.879600*%
%ADD12C,2.032000*%
%ADD13C,1.879600*%
%ADD14R,1.524000X1.524000*%
%ADD15P,1.649562X8X22.500000*%
%ADD16C,1.960000*%
%ADD17C,4.445000*%
%ADD18C,0.654800*%
%ADD19C,0.254000*%


D10*
X165100Y203200D03*
X190500Y203200D03*
X215900Y203200D03*
X241300Y203200D03*
X266700Y203200D03*
X292100Y203200D03*
X317500Y203200D03*
X342900Y203200D03*
X368300Y203200D03*
X393700Y203200D03*
X165100Y304800D03*
X190500Y304800D03*
X215900Y304800D03*
X241300Y304800D03*
X266700Y304800D03*
X292100Y304800D03*
X317500Y304800D03*
X342900Y304800D03*
X368300Y304800D03*
X393700Y304800D03*
X457200Y279400D03*
X457200Y254000D03*
X457200Y228600D03*
D11*
X723900Y279400D03*
D12*
X889000Y220700D03*
X889000Y185700D03*
D13*
X723900Y254000D03*
X723900Y228600D03*
X723900Y203200D03*
X723900Y177800D03*
X723900Y152400D03*
X723900Y127000D03*
D10*
X939800Y190500D03*
X939800Y215900D03*
D14*
X325800Y403600D03*
D15*
X325800Y429000D03*
X351200Y403600D03*
X351200Y429000D03*
X376600Y403600D03*
X376600Y429000D03*
X402000Y403600D03*
X402000Y429000D03*
X427400Y403600D03*
X427400Y429000D03*
X452800Y403600D03*
X452800Y429000D03*
X478200Y403600D03*
X478200Y429000D03*
X503600Y403600D03*
X503600Y429000D03*
X529000Y403600D03*
X529000Y429000D03*
X554400Y403600D03*
X554400Y429000D03*
X579800Y403600D03*
X579800Y429000D03*
X605200Y403600D03*
X605200Y429000D03*
X630600Y403600D03*
X630600Y429000D03*
X656000Y403600D03*
X656000Y429000D03*
X681400Y403600D03*
X681400Y429000D03*
X706800Y403600D03*
X706800Y429000D03*
X732200Y403600D03*
X732200Y429000D03*
X757600Y403600D03*
X757600Y429000D03*
D14*
X325800Y657600D03*
D15*
X325800Y683000D03*
X351200Y657600D03*
X351200Y683000D03*
X376600Y657600D03*
X376600Y683000D03*
X402000Y657600D03*
X402000Y683000D03*
X427400Y657600D03*
X427400Y683000D03*
X452800Y657600D03*
X452800Y683000D03*
X478200Y657600D03*
X478200Y683000D03*
X503600Y657600D03*
X503600Y683000D03*
X529000Y657600D03*
X529000Y683000D03*
X554400Y657600D03*
X554400Y683000D03*
X579800Y657600D03*
X579800Y683000D03*
X605200Y657600D03*
X605200Y683000D03*
X630600Y657600D03*
X630600Y683000D03*
X656000Y657600D03*
X656000Y683000D03*
X681400Y657600D03*
X681400Y683000D03*
X706800Y657600D03*
X706800Y683000D03*
X732200Y657600D03*
X732200Y683000D03*
X757600Y657600D03*
X757600Y683000D03*
D16*
X367300Y126600D03*
X367300Y76600D03*
X242300Y76600D03*
X242300Y126600D03*
D17*
X965200Y50800D03*
X965200Y711200D03*
X50800Y711200D03*
X50800Y50800D03*
D18*
X508000Y177800D03*
D19*
X590550Y177800D01*
D18*
X590550Y177800D03*
M02*
