G04 EAGLE Gerber RS-274X export*
G75*
%MOMM*%
%FSLAX34Y34*%
%LPD*%
%INTop Copper*%
%IPPOS*%
%AMOC8*
5,1,8,0,0,1.08239X$1,22.5*%
G01*
%ADD10C,0.904800*%
%ADD11R,0.790000X0.280000*%
%ADD12R,0.280000X0.790000*%
%ADD13R,1.879600X1.879600*%
%ADD14C,2.032000*%
%ADD15C,1.879600*%
%ADD16R,1.524000X1.524000*%
%ADD17P,1.649562X8X22.500000*%
%ADD18C,1.960000*%
%ADD19C,4.445000*%
%ADD20C,1.016000*%
%ADD21R,0.949959X1.031241*%
%ADD22R,1.031241X0.949959*%
%ADD23C,0.254000*%
%ADD24C,0.635000*%
%ADD25C,0.654800*%

G36*
X1012682Y757546D02*
X1012682Y757546D01*
X1012675Y757665D01*
X1012662Y757703D01*
X1012657Y757744D01*
X1012614Y757854D01*
X1012577Y757967D01*
X1012555Y758002D01*
X1012540Y758039D01*
X1012471Y758135D01*
X1012407Y758236D01*
X1012377Y758264D01*
X1012354Y758297D01*
X1012262Y758373D01*
X1012175Y758454D01*
X1012140Y758474D01*
X1012109Y758499D01*
X1012001Y758550D01*
X1011897Y758608D01*
X1011857Y758618D01*
X1011821Y758635D01*
X1011704Y758657D01*
X1011589Y758687D01*
X1011529Y758691D01*
X1011509Y758695D01*
X1011488Y758693D01*
X1011428Y758697D01*
X4572Y758697D01*
X4454Y758682D01*
X4335Y758675D01*
X4297Y758662D01*
X4256Y758657D01*
X4146Y758614D01*
X4033Y758577D01*
X3998Y758555D01*
X3961Y758540D01*
X3865Y758471D01*
X3764Y758407D01*
X3736Y758377D01*
X3703Y758354D01*
X3627Y758262D01*
X3546Y758175D01*
X3526Y758140D01*
X3501Y758109D01*
X3450Y758001D01*
X3392Y757897D01*
X3382Y757857D01*
X3365Y757821D01*
X3343Y757704D01*
X3313Y757589D01*
X3309Y757529D01*
X3305Y757509D01*
X3307Y757488D01*
X3303Y757428D01*
X3303Y4572D01*
X3318Y4454D01*
X3325Y4335D01*
X3338Y4297D01*
X3343Y4256D01*
X3386Y4146D01*
X3423Y4033D01*
X3445Y3998D01*
X3460Y3961D01*
X3529Y3865D01*
X3593Y3764D01*
X3623Y3736D01*
X3646Y3703D01*
X3738Y3627D01*
X3825Y3546D01*
X3860Y3526D01*
X3891Y3501D01*
X3999Y3450D01*
X4103Y3392D01*
X4143Y3382D01*
X4179Y3365D01*
X4296Y3343D01*
X4411Y3313D01*
X4471Y3309D01*
X4491Y3305D01*
X4512Y3307D01*
X4572Y3303D01*
X1011428Y3303D01*
X1011546Y3318D01*
X1011665Y3325D01*
X1011703Y3338D01*
X1011744Y3343D01*
X1011854Y3386D01*
X1011967Y3423D01*
X1012002Y3445D01*
X1012039Y3460D01*
X1012135Y3529D01*
X1012236Y3593D01*
X1012264Y3623D01*
X1012297Y3646D01*
X1012373Y3738D01*
X1012454Y3825D01*
X1012474Y3860D01*
X1012499Y3891D01*
X1012550Y3999D01*
X1012608Y4103D01*
X1012618Y4143D01*
X1012635Y4179D01*
X1012657Y4296D01*
X1012687Y4411D01*
X1012691Y4471D01*
X1012695Y4491D01*
X1012693Y4512D01*
X1012697Y4572D01*
X1012697Y757428D01*
X1012682Y757546D01*
G37*
%LPC*%
G36*
X101600Y659131D02*
X101600Y659131D01*
X101718Y659146D01*
X101837Y659153D01*
X101875Y659166D01*
X101916Y659171D01*
X102026Y659214D01*
X102139Y659251D01*
X102174Y659273D01*
X102211Y659288D01*
X102307Y659358D01*
X102408Y659421D01*
X102436Y659451D01*
X102469Y659474D01*
X102545Y659566D01*
X102626Y659653D01*
X102646Y659688D01*
X102671Y659719D01*
X102722Y659827D01*
X102780Y659931D01*
X102790Y659971D01*
X102807Y660007D01*
X102829Y660124D01*
X102859Y660239D01*
X102863Y660300D01*
X102867Y660320D01*
X102865Y660340D01*
X102869Y660400D01*
X102869Y735331D01*
X913131Y735331D01*
X913131Y660400D01*
X913146Y660282D01*
X913153Y660163D01*
X913166Y660125D01*
X913171Y660084D01*
X913214Y659974D01*
X913251Y659861D01*
X913273Y659826D01*
X913288Y659789D01*
X913358Y659693D01*
X913421Y659592D01*
X913451Y659564D01*
X913474Y659531D01*
X913566Y659456D01*
X913653Y659374D01*
X913688Y659354D01*
X913719Y659329D01*
X913827Y659278D01*
X913931Y659220D01*
X913971Y659210D01*
X914007Y659193D01*
X914124Y659171D01*
X914239Y659141D01*
X914300Y659137D01*
X914320Y659133D01*
X914340Y659135D01*
X914400Y659131D01*
X989331Y659131D01*
X989331Y102869D01*
X914400Y102869D01*
X914282Y102854D01*
X914163Y102847D01*
X914125Y102834D01*
X914084Y102829D01*
X913974Y102786D01*
X913861Y102749D01*
X913826Y102727D01*
X913789Y102712D01*
X913693Y102643D01*
X913592Y102579D01*
X913564Y102549D01*
X913531Y102526D01*
X913456Y102434D01*
X913374Y102347D01*
X913354Y102312D01*
X913329Y102281D01*
X913278Y102173D01*
X913220Y102069D01*
X913210Y102029D01*
X913193Y101993D01*
X913171Y101876D01*
X913141Y101761D01*
X913137Y101701D01*
X913133Y101681D01*
X913135Y101660D01*
X913131Y101600D01*
X913131Y26669D01*
X180416Y26669D01*
X180298Y26654D01*
X180179Y26647D01*
X180141Y26634D01*
X180101Y26629D01*
X179990Y26586D01*
X179877Y26549D01*
X179843Y26527D01*
X179805Y26512D01*
X179709Y26443D01*
X179608Y26379D01*
X179580Y26349D01*
X179548Y26326D01*
X179472Y26234D01*
X179390Y26147D01*
X179377Y26123D01*
X172555Y26123D01*
X172437Y26108D01*
X172318Y26101D01*
X172280Y26088D01*
X172240Y26083D01*
X172129Y26039D01*
X172016Y26003D01*
X171981Y25981D01*
X171944Y25966D01*
X171848Y25896D01*
X171747Y25833D01*
X171719Y25803D01*
X171687Y25779D01*
X171611Y25688D01*
X171529Y25601D01*
X171510Y25566D01*
X171484Y25534D01*
X171454Y25470D01*
X171387Y25561D01*
X171324Y25662D01*
X171294Y25690D01*
X171270Y25722D01*
X171179Y25798D01*
X171092Y25880D01*
X171057Y25899D01*
X171025Y25925D01*
X170918Y25976D01*
X170814Y26033D01*
X170774Y26044D01*
X170738Y26061D01*
X170621Y26083D01*
X170506Y26113D01*
X170445Y26117D01*
X170425Y26121D01*
X170405Y26119D01*
X170345Y26123D01*
X163516Y26123D01*
X163463Y26208D01*
X163433Y26236D01*
X163409Y26269D01*
X163318Y26345D01*
X163231Y26426D01*
X163196Y26446D01*
X163164Y26471D01*
X163057Y26522D01*
X162952Y26580D01*
X162913Y26590D01*
X162877Y26607D01*
X162760Y26629D01*
X162644Y26659D01*
X162584Y26663D01*
X162564Y26667D01*
X162544Y26665D01*
X162484Y26669D01*
X102869Y26669D01*
X102869Y101600D01*
X102854Y101718D01*
X102847Y101837D01*
X102834Y101875D01*
X102829Y101916D01*
X102786Y102026D01*
X102749Y102139D01*
X102727Y102174D01*
X102712Y102211D01*
X102643Y102307D01*
X102579Y102408D01*
X102549Y102436D01*
X102526Y102469D01*
X102434Y102545D01*
X102347Y102626D01*
X102312Y102646D01*
X102281Y102671D01*
X102173Y102722D01*
X102069Y102780D01*
X102029Y102790D01*
X101993Y102807D01*
X101876Y102829D01*
X101761Y102859D01*
X101701Y102863D01*
X101681Y102867D01*
X101660Y102865D01*
X101600Y102869D01*
X26669Y102869D01*
X26669Y659131D01*
X101600Y659131D01*
G37*
%LPD*%
%LPC*%
G36*
X53339Y713739D02*
X53339Y713739D01*
X53339Y735836D01*
X54955Y735654D01*
X57667Y735035D01*
X60292Y734117D01*
X62799Y732910D01*
X65154Y731430D01*
X67329Y729695D01*
X69295Y727729D01*
X71030Y725554D01*
X72510Y723199D01*
X73717Y720692D01*
X74635Y718067D01*
X75254Y715355D01*
X75436Y713739D01*
X53339Y713739D01*
G37*
%LPD*%
%LPC*%
G36*
X967739Y713739D02*
X967739Y713739D01*
X967739Y735836D01*
X969355Y735654D01*
X972067Y735035D01*
X974692Y734117D01*
X977199Y732910D01*
X979554Y731430D01*
X981729Y729695D01*
X983695Y727729D01*
X985430Y725554D01*
X986910Y723199D01*
X988117Y720692D01*
X989035Y718067D01*
X989654Y715355D01*
X989836Y713739D01*
X967739Y713739D01*
G37*
%LPD*%
%LPC*%
G36*
X53339Y53339D02*
X53339Y53339D01*
X53339Y75436D01*
X54955Y75254D01*
X57667Y74635D01*
X60292Y73717D01*
X62799Y72510D01*
X65154Y71030D01*
X67329Y69295D01*
X69295Y67329D01*
X71030Y65154D01*
X72510Y62799D01*
X73717Y60292D01*
X74635Y57667D01*
X75254Y54955D01*
X75436Y53339D01*
X53339Y53339D01*
G37*
%LPD*%
%LPC*%
G36*
X967739Y53339D02*
X967739Y53339D01*
X967739Y75436D01*
X969355Y75254D01*
X972067Y74635D01*
X974692Y73717D01*
X977199Y72510D01*
X979554Y71030D01*
X981729Y69295D01*
X983695Y67329D01*
X985430Y65154D01*
X986910Y62799D01*
X988117Y60292D01*
X989035Y57667D01*
X989654Y54955D01*
X989836Y53339D01*
X967739Y53339D01*
G37*
%LPD*%
%LPC*%
G36*
X26164Y713739D02*
X26164Y713739D01*
X26346Y715355D01*
X26965Y718067D01*
X27883Y720692D01*
X29090Y723199D01*
X30570Y725554D01*
X32305Y727729D01*
X34271Y729695D01*
X36446Y731430D01*
X38801Y732910D01*
X41308Y734117D01*
X43933Y735035D01*
X46645Y735654D01*
X48261Y735836D01*
X48261Y713739D01*
X26164Y713739D01*
G37*
%LPD*%
%LPC*%
G36*
X940564Y713739D02*
X940564Y713739D01*
X940746Y715355D01*
X941365Y718067D01*
X942283Y720692D01*
X943490Y723199D01*
X944970Y725554D01*
X946705Y727729D01*
X948671Y729695D01*
X950846Y731430D01*
X953201Y732910D01*
X955708Y734117D01*
X958333Y735035D01*
X961045Y735654D01*
X962661Y735836D01*
X962661Y713739D01*
X940564Y713739D01*
G37*
%LPD*%
%LPC*%
G36*
X967739Y708661D02*
X967739Y708661D01*
X989836Y708661D01*
X989654Y707045D01*
X989035Y704333D01*
X988117Y701708D01*
X986910Y699201D01*
X985430Y696846D01*
X983695Y694671D01*
X981729Y692705D01*
X979554Y690970D01*
X977199Y689490D01*
X974692Y688283D01*
X972067Y687365D01*
X969355Y686746D01*
X967739Y686564D01*
X967739Y708661D01*
G37*
%LPD*%
%LPC*%
G36*
X53339Y708661D02*
X53339Y708661D01*
X75436Y708661D01*
X75254Y707045D01*
X74635Y704333D01*
X73717Y701708D01*
X72510Y699201D01*
X71030Y696846D01*
X69295Y694671D01*
X67329Y692705D01*
X65154Y690970D01*
X62799Y689490D01*
X60292Y688283D01*
X57667Y687365D01*
X54955Y686746D01*
X53339Y686564D01*
X53339Y708661D01*
G37*
%LPD*%
%LPC*%
G36*
X26164Y53339D02*
X26164Y53339D01*
X26346Y54955D01*
X26965Y57667D01*
X27883Y60292D01*
X29090Y62799D01*
X30570Y65154D01*
X32305Y67329D01*
X34271Y69295D01*
X36446Y71030D01*
X38801Y72510D01*
X41308Y73717D01*
X43933Y74635D01*
X46645Y75254D01*
X48261Y75436D01*
X48261Y53339D01*
X26164Y53339D01*
G37*
%LPD*%
%LPC*%
G36*
X940564Y53339D02*
X940564Y53339D01*
X940746Y54955D01*
X941365Y57667D01*
X942283Y60292D01*
X943490Y62799D01*
X944970Y65154D01*
X946705Y67329D01*
X948671Y69295D01*
X950846Y71030D01*
X953201Y72510D01*
X955708Y73717D01*
X958333Y74635D01*
X961045Y75254D01*
X962661Y75436D01*
X962661Y53339D01*
X940564Y53339D01*
G37*
%LPD*%
%LPC*%
G36*
X967739Y48261D02*
X967739Y48261D01*
X989836Y48261D01*
X989654Y46645D01*
X989035Y43933D01*
X988117Y41308D01*
X986910Y38801D01*
X985430Y36446D01*
X983695Y34271D01*
X981729Y32305D01*
X979554Y30570D01*
X977199Y29090D01*
X974692Y27883D01*
X972067Y26965D01*
X969355Y26346D01*
X967739Y26164D01*
X967739Y48261D01*
G37*
%LPD*%
%LPC*%
G36*
X53339Y48261D02*
X53339Y48261D01*
X75436Y48261D01*
X75254Y46645D01*
X74635Y43933D01*
X73717Y41308D01*
X72510Y38801D01*
X71030Y36446D01*
X69295Y34271D01*
X67329Y32305D01*
X65154Y30570D01*
X62799Y29090D01*
X60292Y27883D01*
X57667Y26965D01*
X54955Y26346D01*
X53339Y26164D01*
X53339Y48261D01*
G37*
%LPD*%
%LPC*%
G36*
X961045Y686746D02*
X961045Y686746D01*
X958333Y687365D01*
X955708Y688283D01*
X953201Y689490D01*
X950846Y690970D01*
X948671Y692705D01*
X946705Y694671D01*
X944970Y696846D01*
X943490Y699201D01*
X942283Y701708D01*
X941365Y704333D01*
X940746Y707045D01*
X940564Y708661D01*
X962661Y708661D01*
X962661Y686564D01*
X961045Y686746D01*
G37*
%LPD*%
%LPC*%
G36*
X46645Y686746D02*
X46645Y686746D01*
X43933Y687365D01*
X41308Y688283D01*
X38801Y689490D01*
X36446Y690970D01*
X34271Y692705D01*
X32305Y694671D01*
X30570Y696846D01*
X29090Y699201D01*
X27883Y701708D01*
X26965Y704333D01*
X26346Y707045D01*
X26164Y708661D01*
X48261Y708661D01*
X48261Y686564D01*
X46645Y686746D01*
G37*
%LPD*%
%LPC*%
G36*
X961045Y26346D02*
X961045Y26346D01*
X958333Y26965D01*
X955708Y27883D01*
X953201Y29090D01*
X950846Y30570D01*
X948671Y32305D01*
X946705Y34271D01*
X944970Y36446D01*
X943490Y38801D01*
X942283Y41308D01*
X941365Y43933D01*
X940746Y46645D01*
X940564Y48261D01*
X962661Y48261D01*
X962661Y26164D01*
X961045Y26346D01*
G37*
%LPD*%
%LPC*%
G36*
X46645Y26346D02*
X46645Y26346D01*
X43933Y26965D01*
X41308Y27883D01*
X38801Y29090D01*
X36446Y30570D01*
X34271Y32305D01*
X32305Y34271D01*
X30570Y36446D01*
X29090Y38801D01*
X27883Y41308D01*
X26965Y43933D01*
X26346Y46645D01*
X26164Y48261D01*
X48261Y48261D01*
X48261Y26164D01*
X46645Y26346D01*
G37*
%LPD*%
%LPC*%
G36*
X173824Y16458D02*
X173824Y16458D01*
X173824Y21375D01*
X179147Y21375D01*
X179147Y18665D01*
X178974Y18018D01*
X178639Y17439D01*
X178166Y16966D01*
X177587Y16632D01*
X176941Y16458D01*
X173824Y16458D01*
G37*
%LPD*%
%LPC*%
G36*
X165959Y16458D02*
X165959Y16458D01*
X165313Y16632D01*
X164734Y16966D01*
X164261Y17439D01*
X163926Y18018D01*
X163753Y18665D01*
X163753Y21375D01*
X169076Y21375D01*
X169076Y16458D01*
X165959Y16458D01*
G37*
%LPD*%
%LPC*%
G36*
X965199Y711199D02*
X965199Y711199D01*
X965199Y711201D01*
X965201Y711201D01*
X965201Y711199D01*
X965199Y711199D01*
G37*
%LPD*%
%LPC*%
G36*
X50799Y711199D02*
X50799Y711199D01*
X50799Y711201D01*
X50801Y711201D01*
X50801Y711199D01*
X50799Y711199D01*
G37*
%LPD*%
%LPC*%
G36*
X965199Y50799D02*
X965199Y50799D01*
X965199Y50801D01*
X965201Y50801D01*
X965201Y50799D01*
X965199Y50799D01*
G37*
%LPD*%
%LPC*%
G36*
X50799Y50799D02*
X50799Y50799D01*
X50799Y50801D01*
X50801Y50801D01*
X50801Y50799D01*
X50799Y50799D01*
G37*
%LPD*%
D10*
X165100Y203200D03*
X190500Y203200D03*
X215900Y203200D03*
X241300Y203200D03*
X266700Y203200D03*
X292100Y203200D03*
X317500Y203200D03*
X342900Y203200D03*
X368300Y203200D03*
X393700Y203200D03*
X165100Y304800D03*
X190500Y304800D03*
X215900Y304800D03*
X241300Y304800D03*
X266700Y304800D03*
X292100Y304800D03*
X317500Y304800D03*
X342900Y304800D03*
X368300Y304800D03*
X393700Y304800D03*
X457200Y279400D03*
X457200Y254000D03*
X457200Y228600D03*
D11*
X640700Y183950D03*
X640700Y178950D03*
X640700Y173950D03*
X640700Y168950D03*
X640700Y163950D03*
X640700Y158950D03*
D12*
X647900Y151750D03*
X652900Y151750D03*
X657900Y151750D03*
X662900Y151750D03*
X667900Y151750D03*
X672900Y151750D03*
D11*
X680100Y158950D03*
X680100Y163950D03*
X680100Y168950D03*
X680100Y173950D03*
X680100Y178950D03*
X680100Y183950D03*
D12*
X672900Y191150D03*
X667900Y191150D03*
X662900Y191150D03*
X657900Y191150D03*
X652900Y191150D03*
X647900Y191150D03*
D13*
X723900Y279400D03*
D14*
X889000Y220700D03*
X889000Y185700D03*
D15*
X723900Y254000D03*
X723900Y228600D03*
X723900Y203200D03*
X723900Y177800D03*
X723900Y152400D03*
X723900Y127000D03*
D10*
X939800Y190500D03*
X939800Y215900D03*
D16*
X325800Y403600D03*
D17*
X325800Y429000D03*
X351200Y403600D03*
X351200Y429000D03*
X376600Y403600D03*
X376600Y429000D03*
X402000Y403600D03*
X402000Y429000D03*
X427400Y403600D03*
X427400Y429000D03*
X452800Y403600D03*
X452800Y429000D03*
X478200Y403600D03*
X478200Y429000D03*
X503600Y403600D03*
X503600Y429000D03*
X529000Y403600D03*
X529000Y429000D03*
X554400Y403600D03*
X554400Y429000D03*
X579800Y403600D03*
X579800Y429000D03*
X605200Y403600D03*
X605200Y429000D03*
X630600Y403600D03*
X630600Y429000D03*
X656000Y403600D03*
X656000Y429000D03*
X681400Y403600D03*
X681400Y429000D03*
X706800Y403600D03*
X706800Y429000D03*
X732200Y403600D03*
X732200Y429000D03*
X757600Y403600D03*
X757600Y429000D03*
D16*
X325800Y657600D03*
D17*
X325800Y683000D03*
X351200Y657600D03*
X351200Y683000D03*
X376600Y657600D03*
X376600Y683000D03*
X402000Y657600D03*
X402000Y683000D03*
X427400Y657600D03*
X427400Y683000D03*
X452800Y657600D03*
X452800Y683000D03*
X478200Y657600D03*
X478200Y683000D03*
X503600Y657600D03*
X503600Y683000D03*
X529000Y657600D03*
X529000Y683000D03*
X554400Y657600D03*
X554400Y683000D03*
X579800Y657600D03*
X579800Y683000D03*
X605200Y657600D03*
X605200Y683000D03*
X630600Y657600D03*
X630600Y683000D03*
X656000Y657600D03*
X656000Y683000D03*
X681400Y657600D03*
X681400Y683000D03*
X706800Y657600D03*
X706800Y683000D03*
X732200Y657600D03*
X732200Y683000D03*
X757600Y657600D03*
X757600Y683000D03*
D18*
X367300Y126600D03*
X367300Y76600D03*
X242300Y76600D03*
X242300Y126600D03*
D19*
X965200Y50800D03*
D20*
X50800Y127000D03*
D19*
X965200Y711200D03*
X50800Y711200D03*
X50800Y50800D03*
D20*
X50800Y635000D03*
X965200Y635000D03*
D21*
X185801Y146050D03*
X169799Y146050D03*
D22*
X171450Y39751D03*
X171450Y23749D03*
D23*
X171450Y39751D02*
X208299Y76600D01*
X242300Y76600D01*
X698500Y177800D02*
X723900Y152400D01*
X698500Y183950D02*
X680100Y183950D01*
X698500Y183950D02*
X698500Y177800D01*
D24*
X478200Y601300D02*
X478200Y657600D01*
X603250Y430950D02*
X605200Y429000D01*
X603250Y476250D02*
X478200Y601300D01*
X603250Y476250D02*
X603250Y430950D01*
D23*
X605200Y429000D02*
X605200Y427400D01*
X591230Y398866D02*
X584535Y392170D01*
X569970Y392170D02*
X457200Y279400D01*
X591230Y413430D02*
X605200Y427400D01*
X584535Y392170D02*
X569970Y392170D01*
X591230Y398866D02*
X591230Y413430D01*
X457200Y279400D02*
X419100Y279400D01*
X393700Y304800D01*
X457200Y279400D02*
X609600Y127000D01*
X723900Y127000D01*
X169799Y198501D02*
X165100Y203200D01*
X169799Y198501D02*
X169799Y146050D01*
X393700Y203200D02*
X482600Y203200D01*
X508000Y177800D01*
D25*
X508000Y177800D03*
X590550Y177800D03*
D23*
X628650Y139700D01*
X692150Y139700D01*
X698500Y146050D01*
X698500Y152400D01*
X691950Y158950D02*
X680100Y158950D01*
X691950Y158950D02*
X698500Y152400D01*
X663200Y429000D02*
X656000Y429000D01*
X667430Y424770D02*
X667430Y293968D01*
X652900Y279438D01*
X667430Y424770D02*
X663200Y429000D01*
X652900Y279438D02*
X652900Y191150D01*
X630600Y429000D02*
X620180Y429000D01*
X616630Y425450D01*
X616630Y279570D01*
X634990Y261210D01*
X634990Y204060D02*
X647900Y191150D01*
X634990Y204060D02*
X634990Y261210D01*
X723900Y279400D02*
X732200Y287700D01*
X732200Y403600D01*
X757600Y419765D02*
X757600Y429000D01*
X757600Y419765D02*
X769030Y408335D01*
X769030Y299130D01*
X723900Y254000D01*
X380150Y450850D02*
X241300Y450850D01*
X380150Y450850D02*
X402000Y429000D01*
X190500Y293014D02*
X190500Y203200D01*
X190500Y293014D02*
X198834Y301348D01*
X198834Y408384D02*
X241300Y450850D01*
X198834Y408384D02*
X198834Y301348D01*
X242300Y126600D02*
X367300Y126600D01*
X351200Y683000D02*
X351200Y683850D01*
X323850Y711200D01*
X184150Y711200D01*
X82550Y609600D02*
X82550Y196850D01*
X152800Y126600D01*
X242300Y126600D01*
X82550Y609600D02*
X184150Y711200D01*
X185801Y146050D02*
X222850Y146050D01*
X242300Y126600D01*
X711200Y241300D02*
X723900Y228600D01*
X711200Y241300D02*
X706800Y245700D01*
X706800Y445165D02*
X706800Y657600D01*
X706800Y445165D02*
X695370Y433735D01*
X695370Y257130D02*
X706800Y245700D01*
X695370Y257130D02*
X695370Y433735D01*
X939800Y190500D02*
X935000Y185700D01*
X889000Y185700D01*
X889000Y220700D02*
X935000Y220700D01*
X939800Y215900D01*
X419100Y254000D02*
X368300Y304800D01*
X419100Y254000D02*
X457200Y254000D01*
M02*
