G04 EAGLE Gerber RS-274X export*
G75*
%MOMM*%
%FSLAX34Y34*%
%LPD*%
%IN*%
%IPPOS*%
%AMOC8*
5,1,8,0,0,1.08239X$1,22.5*%
G01*
%ADD10C,0.254000*%


D10*
X0Y0D02*
X1016000Y0D01*
X1016000Y762000D01*
X0Y762000D01*
X0Y0D01*
X899160Y272510D02*
X899089Y271431D01*
X898948Y270359D01*
X898737Y269299D01*
X898458Y268255D01*
X898110Y267231D01*
X897696Y266233D01*
X897218Y265263D01*
X896678Y264327D01*
X896077Y263428D01*
X895419Y262571D01*
X894707Y261758D01*
X893942Y260994D01*
X893129Y260281D01*
X892272Y259623D01*
X891373Y259022D01*
X890437Y258482D01*
X889467Y258004D01*
X888469Y257590D01*
X887445Y257242D01*
X886401Y256963D01*
X885341Y256752D01*
X884269Y256611D01*
X883190Y256540D01*
X882110Y256540D01*
X881031Y256611D01*
X879959Y256752D01*
X878899Y256963D01*
X877855Y257242D01*
X876831Y257590D01*
X875833Y258004D01*
X874863Y258482D01*
X873927Y259022D01*
X873028Y259623D01*
X872171Y260281D01*
X871358Y260994D01*
X870594Y261758D01*
X869881Y262571D01*
X869223Y263428D01*
X868622Y264327D01*
X868082Y265263D01*
X867604Y266233D01*
X867190Y267231D01*
X866842Y268255D01*
X866563Y269299D01*
X866352Y270359D01*
X866211Y271431D01*
X866140Y272510D01*
X866140Y273590D01*
X866211Y274669D01*
X866352Y275741D01*
X866563Y276801D01*
X866842Y277845D01*
X867190Y278869D01*
X867604Y279867D01*
X868082Y280837D01*
X868622Y281773D01*
X869223Y282672D01*
X869881Y283529D01*
X870594Y284342D01*
X871358Y285107D01*
X872171Y285819D01*
X873028Y286477D01*
X873927Y287078D01*
X874863Y287618D01*
X875833Y288096D01*
X876831Y288510D01*
X877855Y288858D01*
X878899Y289137D01*
X879959Y289348D01*
X881031Y289489D01*
X882110Y289560D01*
X883190Y289560D01*
X884269Y289489D01*
X885341Y289348D01*
X886401Y289137D01*
X887445Y288858D01*
X888469Y288510D01*
X889467Y288096D01*
X890437Y287618D01*
X891373Y287078D01*
X892272Y286477D01*
X893129Y285819D01*
X893942Y285107D01*
X894707Y284342D01*
X895419Y283529D01*
X896077Y282672D01*
X896678Y281773D01*
X897218Y280837D01*
X897696Y279867D01*
X898110Y278869D01*
X898458Y277845D01*
X898737Y276801D01*
X898948Y275741D01*
X899089Y274669D01*
X899160Y273590D01*
X899160Y272510D01*
X899160Y132810D02*
X899089Y131731D01*
X898948Y130659D01*
X898737Y129599D01*
X898458Y128555D01*
X898110Y127531D01*
X897696Y126533D01*
X897218Y125563D01*
X896678Y124627D01*
X896077Y123728D01*
X895419Y122871D01*
X894707Y122058D01*
X893942Y121294D01*
X893129Y120581D01*
X892272Y119923D01*
X891373Y119322D01*
X890437Y118782D01*
X889467Y118304D01*
X888469Y117890D01*
X887445Y117542D01*
X886401Y117263D01*
X885341Y117052D01*
X884269Y116911D01*
X883190Y116840D01*
X882110Y116840D01*
X881031Y116911D01*
X879959Y117052D01*
X878899Y117263D01*
X877855Y117542D01*
X876831Y117890D01*
X875833Y118304D01*
X874863Y118782D01*
X873927Y119322D01*
X873028Y119923D01*
X872171Y120581D01*
X871358Y121294D01*
X870594Y122058D01*
X869881Y122871D01*
X869223Y123728D01*
X868622Y124627D01*
X868082Y125563D01*
X867604Y126533D01*
X867190Y127531D01*
X866842Y128555D01*
X866563Y129599D01*
X866352Y130659D01*
X866211Y131731D01*
X866140Y132810D01*
X866140Y133890D01*
X866211Y134969D01*
X866352Y136041D01*
X866563Y137101D01*
X866842Y138145D01*
X867190Y139169D01*
X867604Y140167D01*
X868082Y141137D01*
X868622Y142073D01*
X869223Y142972D01*
X869881Y143829D01*
X870594Y144642D01*
X871358Y145407D01*
X872171Y146119D01*
X873028Y146777D01*
X873927Y147378D01*
X874863Y147918D01*
X875833Y148396D01*
X876831Y148810D01*
X877855Y149158D01*
X878899Y149437D01*
X879959Y149648D01*
X881031Y149789D01*
X882110Y149860D01*
X883190Y149860D01*
X884269Y149789D01*
X885341Y149648D01*
X886401Y149437D01*
X887445Y149158D01*
X888469Y148810D01*
X889467Y148396D01*
X890437Y147918D01*
X891373Y147378D01*
X892272Y146777D01*
X893129Y146119D01*
X893942Y145407D01*
X894707Y144642D01*
X895419Y143829D01*
X896077Y142972D01*
X896678Y142073D01*
X897218Y141137D01*
X897696Y140167D01*
X898110Y139169D01*
X898458Y138145D01*
X898737Y137101D01*
X898948Y136041D01*
X899089Y134969D01*
X899160Y133890D01*
X899160Y132810D01*
M02*
