G04 EAGLE Gerber RS-274X export*
G75*
%MOMM*%
%FSLAX34Y34*%
%LPD*%
%INSoldermask Top*%
%IPPOS*%
%AMOC8*
5,1,8,0,0,1.08239X$1,22.5*%
G01*
%ADD10C,1.057200*%
%ADD11R,0.942400X0.432400*%
%ADD12R,0.432400X0.942400*%
%ADD13C,3.454400*%
%ADD14R,2.032000X2.032000*%
%ADD15C,2.184400*%
%ADD16C,2.032000*%
%ADD17R,1.676400X1.676400*%
%ADD18P,1.814519X8X22.500000*%
%ADD19C,2.112400*%
%ADD20C,4.597400*%
%ADD21C,0.609600*%
%ADD22C,1.168400*%
%ADD23R,1.102359X1.183641*%
%ADD24R,1.183641X1.102359*%


D10*
X165100Y203200D03*
X190500Y203200D03*
X215900Y203200D03*
X241300Y203200D03*
X266700Y203200D03*
X292100Y203200D03*
X317500Y203200D03*
X342900Y203200D03*
X368300Y203200D03*
X393700Y203200D03*
X165100Y304800D03*
X190500Y304800D03*
X215900Y304800D03*
X241300Y304800D03*
X266700Y304800D03*
X292100Y304800D03*
X317500Y304800D03*
X342900Y304800D03*
X368300Y304800D03*
X393700Y304800D03*
X457200Y279400D03*
X457200Y254000D03*
X457200Y228600D03*
D11*
X640700Y183950D03*
X640700Y178950D03*
X640700Y173950D03*
X640700Y168950D03*
X640700Y163950D03*
X640700Y158950D03*
D12*
X647900Y151750D03*
X652900Y151750D03*
X657900Y151750D03*
X662900Y151750D03*
X667900Y151750D03*
X672900Y151750D03*
D11*
X680100Y158950D03*
X680100Y163950D03*
X680100Y168950D03*
X680100Y173950D03*
X680100Y178950D03*
X680100Y183950D03*
D12*
X672900Y191150D03*
X667900Y191150D03*
X662900Y191150D03*
X657900Y191150D03*
X652900Y191150D03*
X647900Y191150D03*
D13*
X882650Y273050D03*
X882650Y133350D03*
D14*
X723900Y279400D03*
D15*
X889000Y220700D03*
X889000Y185700D03*
D16*
X723900Y254000D03*
X723900Y228600D03*
X723900Y203200D03*
X723900Y177800D03*
X723900Y152400D03*
X723900Y127000D03*
D10*
X939800Y190500D03*
X939800Y215900D03*
D17*
X325800Y403600D03*
D18*
X325800Y429000D03*
X351200Y403600D03*
X351200Y429000D03*
X376600Y403600D03*
X376600Y429000D03*
X402000Y403600D03*
X402000Y429000D03*
X427400Y403600D03*
X427400Y429000D03*
X452800Y403600D03*
X452800Y429000D03*
X478200Y403600D03*
X478200Y429000D03*
X503600Y403600D03*
X503600Y429000D03*
X529000Y403600D03*
X529000Y429000D03*
X554400Y403600D03*
X554400Y429000D03*
X579800Y403600D03*
X579800Y429000D03*
X605200Y403600D03*
X605200Y429000D03*
X630600Y403600D03*
X630600Y429000D03*
X656000Y403600D03*
X656000Y429000D03*
X681400Y403600D03*
X681400Y429000D03*
X706800Y403600D03*
X706800Y429000D03*
X732200Y403600D03*
X732200Y429000D03*
X757600Y403600D03*
X757600Y429000D03*
D17*
X325800Y657600D03*
D18*
X325800Y683000D03*
X351200Y657600D03*
X351200Y683000D03*
X376600Y657600D03*
X376600Y683000D03*
X402000Y657600D03*
X402000Y683000D03*
X427400Y657600D03*
X427400Y683000D03*
X452800Y657600D03*
X452800Y683000D03*
X478200Y657600D03*
X478200Y683000D03*
X503600Y657600D03*
X503600Y683000D03*
X529000Y657600D03*
X529000Y683000D03*
X554400Y657600D03*
X554400Y683000D03*
X579800Y657600D03*
X579800Y683000D03*
X605200Y657600D03*
X605200Y683000D03*
X630600Y657600D03*
X630600Y683000D03*
X656000Y657600D03*
X656000Y683000D03*
X681400Y657600D03*
X681400Y683000D03*
X706800Y657600D03*
X706800Y683000D03*
X732200Y657600D03*
X732200Y683000D03*
X757600Y657600D03*
X757600Y683000D03*
D19*
X367300Y126600D03*
X367300Y76600D03*
X242300Y76600D03*
X242300Y126600D03*
D20*
X965200Y50800D03*
D21*
X43180Y127000D02*
X43182Y127187D01*
X43189Y127374D01*
X43201Y127561D01*
X43217Y127747D01*
X43237Y127933D01*
X43262Y128118D01*
X43292Y128303D01*
X43326Y128487D01*
X43365Y128670D01*
X43408Y128852D01*
X43456Y129032D01*
X43508Y129212D01*
X43565Y129390D01*
X43625Y129567D01*
X43691Y129742D01*
X43760Y129916D01*
X43834Y130088D01*
X43912Y130258D01*
X43994Y130426D01*
X44080Y130592D01*
X44170Y130756D01*
X44264Y130917D01*
X44362Y131077D01*
X44464Y131233D01*
X44570Y131388D01*
X44680Y131539D01*
X44793Y131688D01*
X44910Y131834D01*
X45030Y131977D01*
X45154Y132117D01*
X45281Y132254D01*
X45412Y132388D01*
X45546Y132519D01*
X45683Y132646D01*
X45823Y132770D01*
X45966Y132890D01*
X46112Y133007D01*
X46261Y133120D01*
X46412Y133230D01*
X46567Y133336D01*
X46723Y133438D01*
X46883Y133536D01*
X47044Y133630D01*
X47208Y133720D01*
X47374Y133806D01*
X47542Y133888D01*
X47712Y133966D01*
X47884Y134040D01*
X48058Y134109D01*
X48233Y134175D01*
X48410Y134235D01*
X48588Y134292D01*
X48768Y134344D01*
X48948Y134392D01*
X49130Y134435D01*
X49313Y134474D01*
X49497Y134508D01*
X49682Y134538D01*
X49867Y134563D01*
X50053Y134583D01*
X50239Y134599D01*
X50426Y134611D01*
X50613Y134618D01*
X50800Y134620D01*
X50987Y134618D01*
X51174Y134611D01*
X51361Y134599D01*
X51547Y134583D01*
X51733Y134563D01*
X51918Y134538D01*
X52103Y134508D01*
X52287Y134474D01*
X52470Y134435D01*
X52652Y134392D01*
X52832Y134344D01*
X53012Y134292D01*
X53190Y134235D01*
X53367Y134175D01*
X53542Y134109D01*
X53716Y134040D01*
X53888Y133966D01*
X54058Y133888D01*
X54226Y133806D01*
X54392Y133720D01*
X54556Y133630D01*
X54717Y133536D01*
X54877Y133438D01*
X55033Y133336D01*
X55188Y133230D01*
X55339Y133120D01*
X55488Y133007D01*
X55634Y132890D01*
X55777Y132770D01*
X55917Y132646D01*
X56054Y132519D01*
X56188Y132388D01*
X56319Y132254D01*
X56446Y132117D01*
X56570Y131977D01*
X56690Y131834D01*
X56807Y131688D01*
X56920Y131539D01*
X57030Y131388D01*
X57136Y131233D01*
X57238Y131077D01*
X57336Y130917D01*
X57430Y130756D01*
X57520Y130592D01*
X57606Y130426D01*
X57688Y130258D01*
X57766Y130088D01*
X57840Y129916D01*
X57909Y129742D01*
X57975Y129567D01*
X58035Y129390D01*
X58092Y129212D01*
X58144Y129032D01*
X58192Y128852D01*
X58235Y128670D01*
X58274Y128487D01*
X58308Y128303D01*
X58338Y128118D01*
X58363Y127933D01*
X58383Y127747D01*
X58399Y127561D01*
X58411Y127374D01*
X58418Y127187D01*
X58420Y127000D01*
X58418Y126813D01*
X58411Y126626D01*
X58399Y126439D01*
X58383Y126253D01*
X58363Y126067D01*
X58338Y125882D01*
X58308Y125697D01*
X58274Y125513D01*
X58235Y125330D01*
X58192Y125148D01*
X58144Y124968D01*
X58092Y124788D01*
X58035Y124610D01*
X57975Y124433D01*
X57909Y124258D01*
X57840Y124084D01*
X57766Y123912D01*
X57688Y123742D01*
X57606Y123574D01*
X57520Y123408D01*
X57430Y123244D01*
X57336Y123083D01*
X57238Y122923D01*
X57136Y122767D01*
X57030Y122612D01*
X56920Y122461D01*
X56807Y122312D01*
X56690Y122166D01*
X56570Y122023D01*
X56446Y121883D01*
X56319Y121746D01*
X56188Y121612D01*
X56054Y121481D01*
X55917Y121354D01*
X55777Y121230D01*
X55634Y121110D01*
X55488Y120993D01*
X55339Y120880D01*
X55188Y120770D01*
X55033Y120664D01*
X54877Y120562D01*
X54717Y120464D01*
X54556Y120370D01*
X54392Y120280D01*
X54226Y120194D01*
X54058Y120112D01*
X53888Y120034D01*
X53716Y119960D01*
X53542Y119891D01*
X53367Y119825D01*
X53190Y119765D01*
X53012Y119708D01*
X52832Y119656D01*
X52652Y119608D01*
X52470Y119565D01*
X52287Y119526D01*
X52103Y119492D01*
X51918Y119462D01*
X51733Y119437D01*
X51547Y119417D01*
X51361Y119401D01*
X51174Y119389D01*
X50987Y119382D01*
X50800Y119380D01*
X50613Y119382D01*
X50426Y119389D01*
X50239Y119401D01*
X50053Y119417D01*
X49867Y119437D01*
X49682Y119462D01*
X49497Y119492D01*
X49313Y119526D01*
X49130Y119565D01*
X48948Y119608D01*
X48768Y119656D01*
X48588Y119708D01*
X48410Y119765D01*
X48233Y119825D01*
X48058Y119891D01*
X47884Y119960D01*
X47712Y120034D01*
X47542Y120112D01*
X47374Y120194D01*
X47208Y120280D01*
X47044Y120370D01*
X46883Y120464D01*
X46723Y120562D01*
X46567Y120664D01*
X46412Y120770D01*
X46261Y120880D01*
X46112Y120993D01*
X45966Y121110D01*
X45823Y121230D01*
X45683Y121354D01*
X45546Y121481D01*
X45412Y121612D01*
X45281Y121746D01*
X45154Y121883D01*
X45030Y122023D01*
X44910Y122166D01*
X44793Y122312D01*
X44680Y122461D01*
X44570Y122612D01*
X44464Y122767D01*
X44362Y122923D01*
X44264Y123083D01*
X44170Y123244D01*
X44080Y123408D01*
X43994Y123574D01*
X43912Y123742D01*
X43834Y123912D01*
X43760Y124084D01*
X43691Y124258D01*
X43625Y124433D01*
X43565Y124610D01*
X43508Y124788D01*
X43456Y124968D01*
X43408Y125148D01*
X43365Y125330D01*
X43326Y125513D01*
X43292Y125697D01*
X43262Y125882D01*
X43237Y126067D01*
X43217Y126253D01*
X43201Y126439D01*
X43189Y126626D01*
X43182Y126813D01*
X43180Y127000D01*
D22*
X50800Y127000D03*
D20*
X965200Y711200D03*
X50800Y711200D03*
X50800Y50800D03*
D21*
X43180Y635000D02*
X43182Y635187D01*
X43189Y635374D01*
X43201Y635561D01*
X43217Y635747D01*
X43237Y635933D01*
X43262Y636118D01*
X43292Y636303D01*
X43326Y636487D01*
X43365Y636670D01*
X43408Y636852D01*
X43456Y637032D01*
X43508Y637212D01*
X43565Y637390D01*
X43625Y637567D01*
X43691Y637742D01*
X43760Y637916D01*
X43834Y638088D01*
X43912Y638258D01*
X43994Y638426D01*
X44080Y638592D01*
X44170Y638756D01*
X44264Y638917D01*
X44362Y639077D01*
X44464Y639233D01*
X44570Y639388D01*
X44680Y639539D01*
X44793Y639688D01*
X44910Y639834D01*
X45030Y639977D01*
X45154Y640117D01*
X45281Y640254D01*
X45412Y640388D01*
X45546Y640519D01*
X45683Y640646D01*
X45823Y640770D01*
X45966Y640890D01*
X46112Y641007D01*
X46261Y641120D01*
X46412Y641230D01*
X46567Y641336D01*
X46723Y641438D01*
X46883Y641536D01*
X47044Y641630D01*
X47208Y641720D01*
X47374Y641806D01*
X47542Y641888D01*
X47712Y641966D01*
X47884Y642040D01*
X48058Y642109D01*
X48233Y642175D01*
X48410Y642235D01*
X48588Y642292D01*
X48768Y642344D01*
X48948Y642392D01*
X49130Y642435D01*
X49313Y642474D01*
X49497Y642508D01*
X49682Y642538D01*
X49867Y642563D01*
X50053Y642583D01*
X50239Y642599D01*
X50426Y642611D01*
X50613Y642618D01*
X50800Y642620D01*
X50987Y642618D01*
X51174Y642611D01*
X51361Y642599D01*
X51547Y642583D01*
X51733Y642563D01*
X51918Y642538D01*
X52103Y642508D01*
X52287Y642474D01*
X52470Y642435D01*
X52652Y642392D01*
X52832Y642344D01*
X53012Y642292D01*
X53190Y642235D01*
X53367Y642175D01*
X53542Y642109D01*
X53716Y642040D01*
X53888Y641966D01*
X54058Y641888D01*
X54226Y641806D01*
X54392Y641720D01*
X54556Y641630D01*
X54717Y641536D01*
X54877Y641438D01*
X55033Y641336D01*
X55188Y641230D01*
X55339Y641120D01*
X55488Y641007D01*
X55634Y640890D01*
X55777Y640770D01*
X55917Y640646D01*
X56054Y640519D01*
X56188Y640388D01*
X56319Y640254D01*
X56446Y640117D01*
X56570Y639977D01*
X56690Y639834D01*
X56807Y639688D01*
X56920Y639539D01*
X57030Y639388D01*
X57136Y639233D01*
X57238Y639077D01*
X57336Y638917D01*
X57430Y638756D01*
X57520Y638592D01*
X57606Y638426D01*
X57688Y638258D01*
X57766Y638088D01*
X57840Y637916D01*
X57909Y637742D01*
X57975Y637567D01*
X58035Y637390D01*
X58092Y637212D01*
X58144Y637032D01*
X58192Y636852D01*
X58235Y636670D01*
X58274Y636487D01*
X58308Y636303D01*
X58338Y636118D01*
X58363Y635933D01*
X58383Y635747D01*
X58399Y635561D01*
X58411Y635374D01*
X58418Y635187D01*
X58420Y635000D01*
X58418Y634813D01*
X58411Y634626D01*
X58399Y634439D01*
X58383Y634253D01*
X58363Y634067D01*
X58338Y633882D01*
X58308Y633697D01*
X58274Y633513D01*
X58235Y633330D01*
X58192Y633148D01*
X58144Y632968D01*
X58092Y632788D01*
X58035Y632610D01*
X57975Y632433D01*
X57909Y632258D01*
X57840Y632084D01*
X57766Y631912D01*
X57688Y631742D01*
X57606Y631574D01*
X57520Y631408D01*
X57430Y631244D01*
X57336Y631083D01*
X57238Y630923D01*
X57136Y630767D01*
X57030Y630612D01*
X56920Y630461D01*
X56807Y630312D01*
X56690Y630166D01*
X56570Y630023D01*
X56446Y629883D01*
X56319Y629746D01*
X56188Y629612D01*
X56054Y629481D01*
X55917Y629354D01*
X55777Y629230D01*
X55634Y629110D01*
X55488Y628993D01*
X55339Y628880D01*
X55188Y628770D01*
X55033Y628664D01*
X54877Y628562D01*
X54717Y628464D01*
X54556Y628370D01*
X54392Y628280D01*
X54226Y628194D01*
X54058Y628112D01*
X53888Y628034D01*
X53716Y627960D01*
X53542Y627891D01*
X53367Y627825D01*
X53190Y627765D01*
X53012Y627708D01*
X52832Y627656D01*
X52652Y627608D01*
X52470Y627565D01*
X52287Y627526D01*
X52103Y627492D01*
X51918Y627462D01*
X51733Y627437D01*
X51547Y627417D01*
X51361Y627401D01*
X51174Y627389D01*
X50987Y627382D01*
X50800Y627380D01*
X50613Y627382D01*
X50426Y627389D01*
X50239Y627401D01*
X50053Y627417D01*
X49867Y627437D01*
X49682Y627462D01*
X49497Y627492D01*
X49313Y627526D01*
X49130Y627565D01*
X48948Y627608D01*
X48768Y627656D01*
X48588Y627708D01*
X48410Y627765D01*
X48233Y627825D01*
X48058Y627891D01*
X47884Y627960D01*
X47712Y628034D01*
X47542Y628112D01*
X47374Y628194D01*
X47208Y628280D01*
X47044Y628370D01*
X46883Y628464D01*
X46723Y628562D01*
X46567Y628664D01*
X46412Y628770D01*
X46261Y628880D01*
X46112Y628993D01*
X45966Y629110D01*
X45823Y629230D01*
X45683Y629354D01*
X45546Y629481D01*
X45412Y629612D01*
X45281Y629746D01*
X45154Y629883D01*
X45030Y630023D01*
X44910Y630166D01*
X44793Y630312D01*
X44680Y630461D01*
X44570Y630612D01*
X44464Y630767D01*
X44362Y630923D01*
X44264Y631083D01*
X44170Y631244D01*
X44080Y631408D01*
X43994Y631574D01*
X43912Y631742D01*
X43834Y631912D01*
X43760Y632084D01*
X43691Y632258D01*
X43625Y632433D01*
X43565Y632610D01*
X43508Y632788D01*
X43456Y632968D01*
X43408Y633148D01*
X43365Y633330D01*
X43326Y633513D01*
X43292Y633697D01*
X43262Y633882D01*
X43237Y634067D01*
X43217Y634253D01*
X43201Y634439D01*
X43189Y634626D01*
X43182Y634813D01*
X43180Y635000D01*
D22*
X50800Y635000D03*
D21*
X957580Y635000D02*
X957582Y635187D01*
X957589Y635374D01*
X957601Y635561D01*
X957617Y635747D01*
X957637Y635933D01*
X957662Y636118D01*
X957692Y636303D01*
X957726Y636487D01*
X957765Y636670D01*
X957808Y636852D01*
X957856Y637032D01*
X957908Y637212D01*
X957965Y637390D01*
X958025Y637567D01*
X958091Y637742D01*
X958160Y637916D01*
X958234Y638088D01*
X958312Y638258D01*
X958394Y638426D01*
X958480Y638592D01*
X958570Y638756D01*
X958664Y638917D01*
X958762Y639077D01*
X958864Y639233D01*
X958970Y639388D01*
X959080Y639539D01*
X959193Y639688D01*
X959310Y639834D01*
X959430Y639977D01*
X959554Y640117D01*
X959681Y640254D01*
X959812Y640388D01*
X959946Y640519D01*
X960083Y640646D01*
X960223Y640770D01*
X960366Y640890D01*
X960512Y641007D01*
X960661Y641120D01*
X960812Y641230D01*
X960967Y641336D01*
X961123Y641438D01*
X961283Y641536D01*
X961444Y641630D01*
X961608Y641720D01*
X961774Y641806D01*
X961942Y641888D01*
X962112Y641966D01*
X962284Y642040D01*
X962458Y642109D01*
X962633Y642175D01*
X962810Y642235D01*
X962988Y642292D01*
X963168Y642344D01*
X963348Y642392D01*
X963530Y642435D01*
X963713Y642474D01*
X963897Y642508D01*
X964082Y642538D01*
X964267Y642563D01*
X964453Y642583D01*
X964639Y642599D01*
X964826Y642611D01*
X965013Y642618D01*
X965200Y642620D01*
X965387Y642618D01*
X965574Y642611D01*
X965761Y642599D01*
X965947Y642583D01*
X966133Y642563D01*
X966318Y642538D01*
X966503Y642508D01*
X966687Y642474D01*
X966870Y642435D01*
X967052Y642392D01*
X967232Y642344D01*
X967412Y642292D01*
X967590Y642235D01*
X967767Y642175D01*
X967942Y642109D01*
X968116Y642040D01*
X968288Y641966D01*
X968458Y641888D01*
X968626Y641806D01*
X968792Y641720D01*
X968956Y641630D01*
X969117Y641536D01*
X969277Y641438D01*
X969433Y641336D01*
X969588Y641230D01*
X969739Y641120D01*
X969888Y641007D01*
X970034Y640890D01*
X970177Y640770D01*
X970317Y640646D01*
X970454Y640519D01*
X970588Y640388D01*
X970719Y640254D01*
X970846Y640117D01*
X970970Y639977D01*
X971090Y639834D01*
X971207Y639688D01*
X971320Y639539D01*
X971430Y639388D01*
X971536Y639233D01*
X971638Y639077D01*
X971736Y638917D01*
X971830Y638756D01*
X971920Y638592D01*
X972006Y638426D01*
X972088Y638258D01*
X972166Y638088D01*
X972240Y637916D01*
X972309Y637742D01*
X972375Y637567D01*
X972435Y637390D01*
X972492Y637212D01*
X972544Y637032D01*
X972592Y636852D01*
X972635Y636670D01*
X972674Y636487D01*
X972708Y636303D01*
X972738Y636118D01*
X972763Y635933D01*
X972783Y635747D01*
X972799Y635561D01*
X972811Y635374D01*
X972818Y635187D01*
X972820Y635000D01*
X972818Y634813D01*
X972811Y634626D01*
X972799Y634439D01*
X972783Y634253D01*
X972763Y634067D01*
X972738Y633882D01*
X972708Y633697D01*
X972674Y633513D01*
X972635Y633330D01*
X972592Y633148D01*
X972544Y632968D01*
X972492Y632788D01*
X972435Y632610D01*
X972375Y632433D01*
X972309Y632258D01*
X972240Y632084D01*
X972166Y631912D01*
X972088Y631742D01*
X972006Y631574D01*
X971920Y631408D01*
X971830Y631244D01*
X971736Y631083D01*
X971638Y630923D01*
X971536Y630767D01*
X971430Y630612D01*
X971320Y630461D01*
X971207Y630312D01*
X971090Y630166D01*
X970970Y630023D01*
X970846Y629883D01*
X970719Y629746D01*
X970588Y629612D01*
X970454Y629481D01*
X970317Y629354D01*
X970177Y629230D01*
X970034Y629110D01*
X969888Y628993D01*
X969739Y628880D01*
X969588Y628770D01*
X969433Y628664D01*
X969277Y628562D01*
X969117Y628464D01*
X968956Y628370D01*
X968792Y628280D01*
X968626Y628194D01*
X968458Y628112D01*
X968288Y628034D01*
X968116Y627960D01*
X967942Y627891D01*
X967767Y627825D01*
X967590Y627765D01*
X967412Y627708D01*
X967232Y627656D01*
X967052Y627608D01*
X966870Y627565D01*
X966687Y627526D01*
X966503Y627492D01*
X966318Y627462D01*
X966133Y627437D01*
X965947Y627417D01*
X965761Y627401D01*
X965574Y627389D01*
X965387Y627382D01*
X965200Y627380D01*
X965013Y627382D01*
X964826Y627389D01*
X964639Y627401D01*
X964453Y627417D01*
X964267Y627437D01*
X964082Y627462D01*
X963897Y627492D01*
X963713Y627526D01*
X963530Y627565D01*
X963348Y627608D01*
X963168Y627656D01*
X962988Y627708D01*
X962810Y627765D01*
X962633Y627825D01*
X962458Y627891D01*
X962284Y627960D01*
X962112Y628034D01*
X961942Y628112D01*
X961774Y628194D01*
X961608Y628280D01*
X961444Y628370D01*
X961283Y628464D01*
X961123Y628562D01*
X960967Y628664D01*
X960812Y628770D01*
X960661Y628880D01*
X960512Y628993D01*
X960366Y629110D01*
X960223Y629230D01*
X960083Y629354D01*
X959946Y629481D01*
X959812Y629612D01*
X959681Y629746D01*
X959554Y629883D01*
X959430Y630023D01*
X959310Y630166D01*
X959193Y630312D01*
X959080Y630461D01*
X958970Y630612D01*
X958864Y630767D01*
X958762Y630923D01*
X958664Y631083D01*
X958570Y631244D01*
X958480Y631408D01*
X958394Y631574D01*
X958312Y631742D01*
X958234Y631912D01*
X958160Y632084D01*
X958091Y632258D01*
X958025Y632433D01*
X957965Y632610D01*
X957908Y632788D01*
X957856Y632968D01*
X957808Y633148D01*
X957765Y633330D01*
X957726Y633513D01*
X957692Y633697D01*
X957662Y633882D01*
X957637Y634067D01*
X957617Y634253D01*
X957601Y634439D01*
X957589Y634626D01*
X957582Y634813D01*
X957580Y635000D01*
D22*
X965200Y635000D03*
D23*
X185801Y146050D03*
X169799Y146050D03*
D24*
X171450Y39751D03*
X171450Y23749D03*
M02*
