M48
;GenerationSoftware,Autodesk,EAGLE,9.6.2*%
;CreationDate,2025-01-06T23:44:21Z*%
FMAT,2
ICI,OFF
METRIC,TZ,000.000
T8C0.350
T7C0.600
T6C0.889
T5C1.016
T4C1.200
T3C1.400
T2C3.175
T1C3.302
%
G90
M71
T1
X88265Y27305
X88265Y13335
T2
X5080Y5080
X5080Y71120
X96520Y71120
X96520Y5080
T3
X36730Y12660
X24230Y12660
X24230Y7660
X36730Y7660
T4
X88900Y22070
X88900Y18570
T5
X72390Y12700
X72390Y27940
X72390Y25400
X72390Y22860
X72390Y20320
X72390Y17780
X72390Y15240
T6
X55440Y65760
X55440Y68300
X57980Y65760
X57980Y68300
X60520Y65760
X60520Y68300
X63060Y65760
X63060Y68300
X65600Y65760
X65600Y68300
X68140Y65760
X57980Y42900
X70680Y65760
X70680Y68300
X73220Y65760
X73220Y68300
X75760Y65760
X75760Y68300
X68140Y68300
X32580Y40360
X32580Y42900
X35120Y40360
X35120Y42900
X37660Y40360
X37660Y42900
X40200Y40360
X40200Y42900
X42740Y40360
X42740Y42900
X45280Y40360
X45280Y42900
X47820Y40360
X47820Y42900
X50360Y40360
X50360Y42900
X52900Y40360
X52900Y42900
X55440Y40360
X55440Y42900
X57980Y40360
X50360Y68300
X60520Y40360
X60520Y42900
X63060Y40360
X63060Y42900
X65600Y40360
X65600Y42900
X68140Y40360
X68140Y42900
X70680Y40360
X70680Y42900
X73220Y40360
X73220Y42900
X75760Y40360
X75760Y42900
X32580Y65760
X32580Y68300
X35120Y65760
X35120Y68300
X37660Y65760
X37660Y68300
X40200Y65760
X40200Y68300
X42740Y65760
X42740Y68300
X45280Y65760
X45280Y68300
X47820Y65760
X47820Y68300
X50360Y65760
X52900Y65760
X52900Y68300
T7
X16510Y20320
X19050Y20320
X21590Y20320
X24130Y20320
X26670Y20320
X29210Y20320
X31750Y20320
X34290Y20320
X36830Y20320
X39370Y20320
X19050Y30480
X21590Y30480
X24130Y30480
X26670Y30480
X29210Y30480
X31750Y30480
X34290Y30480
X16510Y30480
X93980Y19050
X45720Y22860
X45720Y25400
X45720Y27940
X39370Y30480
X36830Y30480
X93980Y21590
T8
X59055Y17780
X50800Y17780
M30